<svg id="svg" version="1.1" xmlns="http://www.w3.org/2000/svg" xmlns:xlink="http://www.w3.org/1999/xlink" width="400" height="170.81292850146914" viewBox="0, 0, 400,170.81292850146914"><g id="svgg"><path id="path0" d="M178.898 69.714 C 178.898 69.808,178.742 69.885,178.551 69.885 C 178.360 69.885,178.159 70.000,178.105 70.141 C 178.051 70.282,177.861 70.397,177.684 70.397 C 177.474 70.397,177.360 70.518,177.360 70.739 C 177.360 70.929,177.246 71.081,177.104 71.081 C 176.944 71.081,176.848 71.242,176.848 71.508 C 176.848 71.743,176.771 71.935,176.677 71.935 C 176.567 71.935,176.506 73.444,176.506 76.119 C 176.506 80.736,176.561 80.991,177.569 80.991 C 177.830 80.991,178.044 81.068,178.044 81.162 C 178.044 81.256,178.313 81.333,178.642 81.333 C 178.971 81.333,179.240 81.410,179.240 81.504 C 179.240 81.598,179.509 81.674,179.838 81.674 C 180.255 81.674,180.436 81.752,180.436 81.931 C 180.436 82.110,180.616 82.187,181.034 82.187 C 181.363 82.187,181.632 82.264,181.632 82.358 C 181.632 82.452,181.901 82.529,182.230 82.529 C 182.559 82.529,182.828 82.606,182.828 82.700 C 182.828 82.794,182.982 82.871,183.170 82.871 C 183.493 82.871,183.511 82.984,183.511 85.006 C 183.511 86.316,183.445 87.142,183.340 87.142 C 183.246 87.142,183.170 87.258,183.170 87.399 C 183.170 87.601,182.930 87.655,182.035 87.655 C 180.602 87.655,180.448 87.481,180.441 85.856 C 180.434 84.200,180.261 84.067,178.127 84.067 L 176.506 84.067 176.506 86.373 C 176.506 87.797,176.571 88.680,176.677 88.680 C 176.771 88.680,176.848 88.949,176.848 89.278 C 176.848 89.696,176.925 89.876,177.104 89.876 C 177.245 89.876,177.360 89.959,177.360 90.059 C 177.360 90.406,177.850 90.730,178.373 90.730 C 178.662 90.730,178.898 90.807,178.898 90.901 C 178.898 91.009,180.037 91.072,181.974 91.072 C 183.910 91.072,185.049 91.009,185.049 90.901 C 185.049 90.807,185.208 90.730,185.403 90.730 C 185.781 90.730,186.245 90.361,186.245 90.059 C 186.245 89.959,186.328 89.876,186.428 89.876 C 186.775 89.876,187.100 89.387,187.100 88.863 C 187.100 88.574,187.176 88.338,187.270 88.338 C 187.379 88.338,187.439 86.961,187.436 84.537 C 187.430 80.707,187.346 80.137,186.782 80.137 C 186.675 80.137,186.587 80.060,186.587 79.966 C 186.587 79.872,186.364 79.795,186.093 79.795 C 185.821 79.795,185.561 79.697,185.515 79.578 C 185.469 79.458,185.211 79.342,184.941 79.320 C 184.672 79.298,184.425 79.203,184.394 79.110 C 184.363 79.017,184.074 78.941,183.753 78.941 C 183.432 78.941,183.170 78.864,183.170 78.770 C 183.170 78.676,182.900 78.599,182.572 78.599 C 182.243 78.599,181.974 78.522,181.974 78.428 C 181.974 78.334,181.628 78.257,181.205 78.257 L 180.436 78.257 180.436 75.938 C 180.436 74.156,180.492 73.563,180.680 73.375 C 180.961 73.094,182.828 73.031,182.828 73.302 C 182.828 73.396,182.982 73.473,183.170 73.473 C 183.486 73.473,183.511 73.587,183.511 75.011 L 183.511 76.548 185.476 76.548 L 187.441 76.548 187.441 74.573 C 187.441 73.300,187.381 72.636,187.270 72.704 C 187.166 72.768,187.100 72.514,187.100 72.052 C 187.100 71.398,187.018 71.226,186.501 70.784 C 186.173 70.503,185.903 70.186,185.903 70.079 C 185.903 69.972,185.711 69.885,185.476 69.885 C 185.241 69.885,185.049 69.808,185.049 69.714 C 185.049 69.606,183.910 69.543,181.974 69.543 C 180.037 69.543,178.898 69.606,178.898 69.714 M197.183 80.308 L 197.176 91.072 202.475 91.072 L 207.774 91.072 207.774 89.364 L 207.774 87.655 204.443 87.655 L 201.111 87.655 201.111 78.599 L 201.111 69.543 199.151 69.543 L 197.191 69.543 197.183 80.308 M221.827 69.882 C 221.710 70.069,221.615 70.599,221.615 71.060 C 221.615 71.648,221.538 71.928,221.358 71.997 C 221.189 72.062,221.102 72.329,221.102 72.784 C 221.102 73.163,221.025 73.473,220.931 73.473 C 220.836 73.473,220.760 73.929,220.760 74.498 C 220.760 75.068,220.684 75.523,220.589 75.523 C 220.496 75.523,220.419 75.938,220.419 76.445 C 220.419 77.106,220.346 77.394,220.162 77.465 C 219.994 77.529,219.906 77.796,219.906 78.242 C 219.906 78.615,219.829 78.968,219.735 79.026 C 219.641 79.084,219.564 79.550,219.564 80.061 C 219.564 80.573,219.487 80.991,219.393 80.991 C 219.299 80.991,219.223 81.337,219.223 81.760 C 219.223 82.183,219.146 82.529,219.052 82.529 C 218.958 82.529,218.881 82.952,218.881 83.469 C 218.881 84.190,218.821 84.408,218.625 84.408 C 218.425 84.408,218.368 84.636,218.368 85.434 C 218.368 86.003,218.292 86.459,218.197 86.459 C 218.103 86.459,218.026 86.805,218.026 87.228 C 218.026 87.651,217.950 87.997,217.856 87.997 C 217.762 87.997,217.685 88.411,217.685 88.918 C 217.685 89.580,217.612 89.867,217.428 89.938 C 217.279 89.995,217.172 90.251,217.172 90.554 L 217.172 91.072 219.137 91.072 L 221.102 91.072 221.102 90.151 C 221.102 89.489,221.174 89.201,221.358 89.131 C 221.540 89.061,221.615 88.778,221.615 88.161 C 221.615 86.855,221.723 86.801,224.336 86.801 L 226.570 86.801 226.570 87.740 C 226.570 88.462,226.629 88.680,226.826 88.680 C 227.023 88.680,227.082 88.900,227.082 89.632 C 227.082 91.001,227.228 91.095,229.255 91.036 L 230.927 90.987 230.979 90.261 C 231.020 89.695,230.973 89.534,230.766 89.534 C 230.557 89.534,230.500 89.331,230.500 88.595 C 230.500 88.078,230.423 87.655,230.329 87.655 C 230.235 87.655,230.158 87.313,230.158 86.896 C 230.158 86.479,230.081 86.090,229.987 86.032 C 229.893 85.974,229.816 85.508,229.816 84.996 C 229.816 84.284,229.756 84.067,229.560 84.067 C 229.370 84.067,229.304 83.867,229.304 83.298 C 229.304 82.875,229.227 82.529,229.133 82.529 C 229.039 82.529,228.962 82.110,228.962 81.599 C 228.962 81.088,228.885 80.622,228.791 80.564 C 228.697 80.506,228.620 80.040,228.620 79.529 C 228.620 79.017,228.543 78.599,228.449 78.599 C 228.355 78.599,228.279 78.289,228.279 77.910 C 228.279 77.455,228.191 77.188,228.022 77.123 C 227.835 77.051,227.766 76.755,227.766 76.018 C 227.766 75.460,227.690 75.011,227.595 75.011 C 227.501 75.011,227.424 74.588,227.424 74.071 C 227.424 73.554,227.347 73.131,227.253 73.131 C 227.159 73.131,227.082 72.785,227.082 72.362 C 227.082 71.793,227.016 71.593,226.826 71.593 C 226.636 71.593,226.570 71.393,226.570 70.812 C 226.570 69.626,226.406 69.543,224.060 69.543 C 222.228 69.543,222.019 69.575,221.827 69.882 M236.936 69.657 C 236.756 69.837,236.803 70.739,236.993 70.739 C 237.087 70.739,237.164 70.972,237.164 71.257 C 237.164 71.560,237.270 71.816,237.420 71.873 C 237.561 71.927,237.676 72.117,237.676 72.295 C 237.676 72.473,237.753 72.619,237.847 72.619 C 237.941 72.619,238.018 72.888,238.018 73.217 C 238.018 73.545,238.095 73.815,238.189 73.815 C 238.283 73.815,238.360 74.007,238.360 74.242 C 238.360 74.477,238.428 74.669,238.512 74.669 C 238.596 74.669,238.713 74.861,238.772 75.096 C 238.831 75.331,238.954 75.523,239.046 75.523 C 239.139 75.523,239.214 75.754,239.214 76.036 C 239.214 76.318,239.291 76.548,239.385 76.548 C 239.479 76.548,239.556 76.741,239.556 76.976 C 239.556 77.211,239.633 77.403,239.727 77.403 C 239.821 77.403,239.897 77.672,239.897 78.001 C 239.897 78.419,239.975 78.599,240.154 78.599 C 240.296 78.599,240.410 78.751,240.410 78.941 C 240.410 79.129,240.487 79.282,240.581 79.282 C 240.675 79.282,240.752 79.551,240.752 79.880 C 240.752 80.209,240.829 80.478,240.923 80.478 C 241.017 80.478,241.094 80.635,241.094 80.826 C 241.094 81.016,241.209 81.217,241.350 81.271 C 241.491 81.325,241.606 81.553,241.606 81.778 C 241.606 82.003,241.683 82.187,241.777 82.187 C 241.887 82.187,241.948 83.782,241.948 86.630 L 241.948 91.072 243.657 91.072 L 245.365 91.072 245.365 86.630 C 245.365 82.795,245.400 82.187,245.622 82.187 C 245.801 82.187,245.878 82.007,245.878 81.589 C 245.878 81.260,245.955 80.991,246.049 80.991 C 246.143 80.991,246.220 80.799,246.220 80.564 C 246.220 80.329,246.296 80.137,246.390 80.137 C 246.484 80.137,246.561 79.868,246.561 79.539 C 246.561 79.210,246.633 78.941,246.720 78.941 C 246.944 78.941,247.416 77.939,247.416 77.462 C 247.416 77.241,247.493 77.061,247.587 77.061 C 247.680 77.061,247.757 76.869,247.757 76.634 C 247.757 76.399,247.829 76.207,247.916 76.207 C 248.138 76.207,248.612 75.208,248.612 74.738 C 248.612 74.523,248.689 74.300,248.783 74.242 C 248.877 74.184,248.953 73.987,248.953 73.805 C 248.953 73.622,249.030 73.473,249.124 73.473 C 249.218 73.473,249.295 73.204,249.295 72.875 C 249.295 72.457,249.372 72.277,249.551 72.277 C 249.711 72.277,249.808 72.115,249.808 71.850 C 249.808 71.615,249.885 71.422,249.979 71.422 C 250.073 71.422,250.150 71.192,250.150 70.910 C 250.150 70.628,250.226 70.397,250.320 70.397 C 250.414 70.397,250.491 70.205,250.491 69.970 L 250.491 69.543 248.526 69.543 L 246.561 69.543 246.561 69.970 C 246.561 70.205,246.484 70.397,246.390 70.397 C 246.296 70.397,246.220 70.666,246.220 70.995 C 246.220 71.324,246.143 71.593,246.049 71.593 C 245.955 71.593,245.878 71.714,245.878 71.862 C 245.878 72.010,245.762 72.246,245.622 72.387 C 245.481 72.528,245.365 72.830,245.365 73.058 C 245.365 73.286,245.288 73.473,245.194 73.473 C 245.100 73.473,245.023 73.665,245.023 73.900 C 245.023 74.135,244.947 74.327,244.853 74.327 C 244.759 74.327,244.682 74.596,244.682 74.925 C 244.682 75.254,244.605 75.523,244.511 75.523 C 244.417 75.523,244.340 75.669,244.340 75.847 C 244.340 76.025,244.225 76.214,244.084 76.269 C 243.934 76.326,243.827 76.582,243.827 76.885 C 243.827 77.170,243.751 77.403,243.657 77.403 C 243.563 77.403,243.486 77.211,243.486 76.976 C 243.486 76.741,243.409 76.548,243.315 76.548 C 243.221 76.548,243.144 76.395,243.144 76.207 C 243.144 76.017,243.030 75.865,242.888 75.865 C 242.709 75.865,242.631 75.685,242.631 75.267 C 242.631 74.938,242.554 74.669,242.460 74.669 C 242.367 74.669,242.290 74.520,242.290 74.337 C 242.290 74.155,242.213 73.958,242.119 73.900 C 242.025 73.842,241.948 73.573,241.948 73.302 C 241.948 73.031,241.871 72.762,241.777 72.704 C 241.683 72.646,241.606 72.408,241.606 72.176 C 241.606 71.944,241.491 71.709,241.350 71.655 C 241.209 71.601,241.094 71.373,241.094 71.148 C 241.094 70.923,241.017 70.739,240.923 70.739 C 240.829 70.739,240.752 70.470,240.752 70.141 L 240.752 69.543 238.901 69.543 C 237.883 69.543,236.998 69.594,236.936 69.657 M260.003 69.657 C 259.940 69.719,259.889 74.564,259.889 80.421 L 259.889 91.072 265.186 91.072 L 270.483 91.072 270.483 89.364 L 270.483 87.655 266.980 87.655 L 263.477 87.655 263.477 84.921 L 263.477 82.187 266.211 82.187 L 268.945 82.187 268.945 80.393 L 268.945 78.599 266.211 78.599 L 263.477 78.599 263.477 75.869 L 263.477 73.138 266.937 73.092 L 270.397 73.046 270.446 71.294 L 270.495 69.543 265.306 69.543 C 262.452 69.543,260.065 69.594,260.003 69.657 M280.393 80.308 L 280.393 91.072 282.273 91.072 L 284.152 91.072 284.152 87.569 L 284.152 84.067 284.933 84.067 C 285.901 84.067,286.202 84.347,286.202 85.251 C 286.202 85.633,286.279 85.946,286.373 85.946 C 286.467 85.946,286.544 86.295,286.544 86.720 C 286.544 87.251,286.625 87.526,286.801 87.593 C 286.947 87.649,287.057 87.904,287.057 88.186 C 287.057 88.458,287.134 88.680,287.228 88.680 C 287.322 88.680,287.399 89.022,287.399 89.439 C 287.399 89.856,287.475 90.245,287.569 90.303 C 287.663 90.361,287.740 90.558,287.740 90.741 C 287.740 91.048,287.872 91.072,289.534 91.072 L 291.328 91.072 291.328 90.132 C 291.328 89.411,291.269 89.193,291.072 89.193 C 290.893 89.193,290.816 89.012,290.816 88.595 C 290.816 88.266,290.739 87.997,290.645 87.997 C 290.551 87.997,290.474 87.651,290.474 87.228 C 290.474 86.805,290.397 86.459,290.303 86.459 C 290.209 86.459,290.132 86.113,290.132 85.690 C 290.132 85.267,290.056 84.921,289.962 84.921 C 289.868 84.921,289.791 84.537,289.791 84.067 C 289.791 83.404,289.851 83.212,290.059 83.212 C 290.405 83.212,290.816 82.801,290.816 82.456 C 290.816 82.308,290.931 82.187,291.072 82.187 C 291.266 82.187,291.328 81.978,291.328 81.333 C 291.328 80.863,291.405 80.478,291.499 80.478 C 291.608 80.478,291.670 79.055,291.670 76.548 C 291.670 74.042,291.608 72.619,291.499 72.619 C 291.405 72.619,291.328 72.343,291.328 72.007 C 291.328 71.345,290.104 69.885,289.548 69.885 C 289.399 69.885,289.278 69.808,289.278 69.714 C 289.278 69.604,287.683 69.543,284.836 69.543 L 280.393 69.543 280.393 80.308 M132.593 70.654 C 132.593 70.795,132.708 70.910,132.849 70.910 C 132.990 70.910,133.106 70.795,133.106 70.654 C 133.106 70.513,132.990 70.397,132.849 70.397 C 132.708 70.397,132.593 70.513,132.593 70.654 M287.057 73.302 C 287.057 73.396,287.211 73.473,287.399 73.473 C 287.728 73.473,287.740 73.587,287.740 76.561 C 287.740 80.305,287.836 80.137,285.702 80.137 L 284.152 80.137 284.152 76.634 L 284.152 73.131 285.604 73.131 C 286.459 73.131,287.057 73.201,287.057 73.302 M224.349 75.609 C 224.349 76.126,224.425 76.548,224.519 76.548 C 224.617 76.548,224.690 77.061,224.690 77.745 C 224.690 78.428,224.764 78.941,224.861 78.941 C 224.955 78.941,225.032 79.355,225.032 79.862 C 225.032 80.524,225.104 80.811,225.288 80.882 C 225.480 80.955,225.545 81.262,225.545 82.096 C 225.545 82.726,225.619 83.212,225.716 83.212 C 225.809 83.212,225.886 83.328,225.886 83.469 C 225.886 83.680,225.573 83.725,224.092 83.725 C 222.611 83.725,222.298 83.680,222.298 83.469 C 222.298 83.328,222.375 83.212,222.469 83.212 C 222.563 83.212,222.640 82.798,222.640 82.291 C 222.640 81.629,222.712 81.342,222.896 81.271 C 223.088 81.197,223.152 80.891,223.152 80.057 C 223.152 79.427,223.227 78.941,223.323 78.941 C 223.417 78.941,223.494 78.518,223.494 78.001 C 223.494 77.484,223.571 77.061,223.665 77.061 C 223.763 77.061,223.836 76.548,223.836 75.865 C 223.836 74.916,223.889 74.669,224.092 74.669 C 224.289 74.669,224.349 74.887,224.349 75.609 M139.195 77.659 C 139.135 77.815,139.195 77.915,139.348 77.915 C 139.486 77.915,139.598 77.800,139.598 77.659 C 139.598 77.518,139.530 77.403,139.446 77.403 C 139.362 77.403,139.249 77.518,139.195 77.659 M135.725 77.846 C 135.725 78.159,136.133 78.286,136.241 78.007 C 136.289 77.881,136.193 77.743,136.027 77.699 C 135.851 77.653,135.725 77.715,135.725 77.846 M97.565 79.880 C 97.565 80.021,97.680 80.137,97.821 80.137 C 97.962 80.137,98.078 80.021,98.078 79.880 C 98.078 79.739,97.962 79.624,97.821 79.624 C 97.680 79.624,97.565 79.739,97.565 79.880 M96.882 80.288 C 96.882 80.534,96.961 80.608,97.145 80.537 C 97.437 80.426,97.401 80.110,97.085 80.005 C 96.972 79.967,96.882 80.093,96.882 80.288 M97.595 80.744 C 97.673 81.115,97.976 81.138,98.045 80.777 C 98.081 80.590,97.997 80.478,97.821 80.478 C 97.657 80.478,97.563 80.589,97.595 80.744 M130.315 81.447 C 130.107 81.654,130.197 81.836,130.457 81.736 C 130.598 81.682,130.713 81.569,130.713 81.485 C 130.713 81.306,130.478 81.283,130.315 81.447 M136.562 82.219 C 136.668 82.536,137.035 82.589,137.035 82.287 C 137.035 82.138,136.914 82.016,136.765 82.016 C 136.616 82.016,136.525 82.108,136.562 82.219 M140.396 82.984 C 140.199 83.181,140.271 83.383,140.538 83.383 C 140.679 83.383,140.795 83.268,140.795 83.127 C 140.795 82.860,140.592 82.788,140.396 82.984 M129.517 85.177 C 129.517 85.318,129.633 85.434,129.774 85.434 C 129.915 85.434,130.030 85.318,130.030 85.177 C 130.030 85.036,129.915 84.921,129.774 84.921 C 129.633 84.921,129.517 85.036,129.517 85.177 M129.125 87.028 C 129.077 87.154,129.145 87.256,129.277 87.256 C 129.409 87.256,129.517 87.154,129.517 87.028 C 129.517 86.903,129.449 86.801,129.365 86.801 C 129.281 86.801,129.173 86.903,129.125 87.028 M132.593 88.082 C 132.593 88.223,132.670 88.338,132.764 88.338 C 132.858 88.338,132.935 88.223,132.935 88.082 C 132.935 87.941,132.858 87.826,132.764 87.826 C 132.670 87.826,132.593 87.941,132.593 88.082 M138.100 90.079 C 138.205 90.396,138.573 90.448,138.573 90.147 C 138.573 89.998,138.452 89.876,138.303 89.876 C 138.154 89.876,138.063 89.967,138.100 90.079 " stroke="none" fill="#ec9444" fill-rule="evenodd"></path><path id="path1" d="M87.484 80.308 L 87.484 91.072 92.012 91.072 C 94.917 91.072,96.540 91.011,96.540 90.901 C 96.540 90.807,96.699 90.730,96.894 90.730 C 97.272 90.730,97.736 90.361,97.736 90.059 C 97.736 89.959,97.813 89.876,97.907 89.876 C 98.001 89.876,98.078 89.722,98.078 89.534 C 98.078 89.345,98.192 89.193,98.334 89.193 C 98.554 89.193,98.590 88.642,98.590 85.263 C 98.590 81.883,98.554 81.333,98.334 81.333 C 98.193 81.333,98.078 81.251,98.078 81.152 C 98.078 81.052,97.996 81.022,97.895 81.084 C 97.794 81.146,97.670 81.030,97.616 80.824 C 97.547 80.563,97.422 80.476,97.200 80.534 C 96.969 80.594,96.882 80.525,96.882 80.280 C 96.882 80.021,96.960 79.968,97.223 80.051 C 97.466 80.128,97.565 80.082,97.565 79.892 C 97.565 79.745,97.680 79.624,97.821 79.624 C 97.962 79.624,98.078 79.547,98.078 79.453 C 98.078 79.359,98.193 79.282,98.334 79.282 C 98.554 79.282,98.590 78.741,98.590 75.438 C 98.590 72.134,98.554 71.593,98.334 71.593 C 98.191 71.593,98.078 71.441,98.078 71.250 C 98.078 70.831,97.207 69.885,96.820 69.885 C 96.666 69.885,96.540 69.808,96.540 69.714 C 96.540 69.604,94.917 69.543,92.012 69.543 L 87.484 69.543 87.484 80.308 M108.672 80.308 L 108.672 91.072 114.139 91.072 L 119.607 91.072 119.607 89.364 L 119.607 87.655 115.933 87.655 C 113.598 87.655,112.260 87.593,112.260 87.484 C 112.260 87.390,112.356 87.312,112.473 87.310 C 112.640 87.308,112.639 87.278,112.468 87.169 C 112.304 87.065,112.262 86.440,112.297 84.651 L 112.345 82.273 115.115 82.226 C 117.473 82.186,117.870 82.141,117.788 81.927 C 117.734 81.788,117.776 81.674,117.880 81.674 C 118.004 81.674,118.069 81.167,118.069 80.212 C 118.069 79.281,118.007 78.788,117.898 78.855 C 117.804 78.913,117.727 78.879,117.727 78.780 C 117.727 78.660,116.804 78.599,114.994 78.599 L 112.260 78.599 112.260 76.109 C 112.260 72.872,111.919 73.131,116.177 73.131 L 119.607 73.131 119.607 71.337 L 119.607 69.543 114.139 69.543 L 108.672 69.543 108.672 80.308 M133.000 70.226 C 133.087 70.771,133.057 70.910,132.851 70.910 C 132.664 70.910,132.593 71.097,132.593 71.593 C 132.593 71.969,132.516 72.277,132.422 72.277 C 132.327 72.277,132.251 72.732,132.251 73.302 C 132.251 73.872,132.175 74.327,132.080 74.327 C 131.986 74.327,131.909 74.750,131.909 75.267 C 131.909 76.138,131.713 76.496,131.510 75.993 C 131.463 75.876,131.418 76.222,131.410 76.762 C 131.403 77.302,131.320 77.745,131.226 77.745 C 131.131 77.745,131.055 78.200,131.055 78.770 C 131.055 79.339,130.979 79.795,130.884 79.795 C 130.790 79.795,130.713 80.210,130.713 80.716 C 130.713 81.378,130.641 81.666,130.457 81.736 C 130.289 81.801,130.201 82.068,130.201 82.513 C 130.201 82.887,130.114 83.246,130.008 83.311 C 129.883 83.388,129.848 83.781,129.907 84.432 C 129.978 85.221,129.947 85.434,129.757 85.434 C 129.580 85.434,129.517 85.683,129.517 86.394 C 129.517 87.172,129.474 87.319,129.291 87.167 C 129.110 87.017,129.058 87.154,129.026 87.873 C 129.004 88.364,128.913 88.791,128.824 88.822 C 128.736 88.854,128.663 89.373,128.663 89.976 L 128.663 91.072 130.457 91.072 C 132.137 91.072,132.251 91.050,132.251 90.730 C 132.251 90.543,132.328 90.389,132.422 90.389 C 132.521 90.389,132.593 89.848,132.593 89.107 C 132.593 88.367,132.665 87.826,132.764 87.826 C 132.858 87.826,132.935 87.595,132.935 87.313 L 132.935 86.801 135.327 86.801 L 137.719 86.801 137.719 87.399 C 137.719 87.727,137.796 87.997,137.890 87.997 C 137.984 87.997,138.061 88.419,138.061 88.936 C 138.061 89.658,138.120 89.876,138.317 89.876 C 138.496 89.876,138.573 90.056,138.573 90.474 L 138.573 91.072 140.453 91.072 C 142.218 91.072,142.332 91.051,142.332 90.730 C 142.332 90.543,142.255 90.389,142.161 90.389 C 142.067 90.389,141.991 90.049,141.991 89.634 C 141.991 89.190,141.903 88.844,141.777 88.793 C 141.616 88.728,141.627 88.661,141.820 88.525 C 141.993 88.402,142.007 88.343,141.862 88.341 C 141.724 88.339,141.649 88.069,141.649 87.569 C 141.649 87.147,141.572 86.801,141.478 86.801 C 141.384 86.801,141.307 86.378,141.307 85.861 C 141.307 85.139,141.248 84.921,141.051 84.921 C 140.861 84.921,140.795 84.722,140.795 84.152 C 140.795 83.631,140.722 83.383,140.570 83.383 C 140.401 83.383,140.364 83.128,140.420 82.358 C 140.469 81.671,140.431 81.333,140.302 81.333 C 140.182 81.333,140.111 80.948,140.111 80.297 C 140.111 79.640,140.048 79.301,139.937 79.370 C 139.842 79.429,139.808 79.548,139.862 79.636 C 139.916 79.723,139.879 79.795,139.779 79.795 C 139.674 79.795,139.598 79.403,139.598 78.855 C 139.598 78.217,139.530 77.916,139.385 77.916 C 139.231 77.916,139.188 77.628,139.229 76.891 C 139.267 76.230,139.221 75.865,139.101 75.865 C 138.994 75.865,138.915 75.537,138.915 75.096 C 138.915 74.480,138.856 74.326,138.616 74.322 C 138.345 74.317,138.349 74.292,138.649 74.065 C 138.831 73.927,138.889 73.815,138.777 73.815 C 138.649 73.815,138.573 73.527,138.573 73.046 C 138.573 72.476,138.507 72.277,138.317 72.277 C 138.120 72.277,138.061 72.058,138.061 71.337 C 138.061 70.820,137.984 70.397,137.890 70.397 C 137.796 70.397,137.719 70.205,137.719 69.970 L 137.719 69.543 135.305 69.543 L 132.891 69.543 133.000 70.226 M149.509 71.337 L 149.509 73.131 151.089 73.151 C 151.959 73.163,152.727 73.163,152.798 73.151 C 152.868 73.140,152.926 77.168,152.926 82.102 L 152.926 91.072 154.720 91.072 L 156.514 91.072 156.514 82.102 L 156.514 73.131 158.308 73.131 L 160.103 73.131 160.103 71.337 L 160.103 69.543 154.806 69.543 L 149.509 69.543 149.509 71.337 M94.148 73.302 C 94.148 73.396,94.230 73.473,94.331 73.473 C 94.861 73.473,95.002 73.974,95.002 75.853 C 95.002 77.000,94.935 77.745,94.831 77.745 C 94.737 77.745,94.660 77.860,94.660 78.001 C 94.660 78.142,94.545 78.257,94.404 78.257 C 94.263 78.257,94.148 78.334,94.148 78.428 C 94.148 78.528,93.578 78.599,92.781 78.599 L 91.414 78.599 91.414 75.865 L 91.414 73.131 92.781 73.131 C 93.578 73.131,94.148 73.202,94.148 73.302 M135.689 76.762 C 135.700 77.255,135.703 77.709,135.695 77.770 C 135.687 77.831,135.812 77.846,135.973 77.803 C 136.234 77.735,136.260 77.861,136.210 78.931 C 136.173 79.717,136.217 80.137,136.338 80.137 C 136.448 80.137,136.523 80.516,136.523 81.076 C 136.523 81.828,136.578 82.016,136.799 82.016 C 137.002 82.016,137.048 82.118,136.972 82.401 C 136.916 82.612,136.868 82.997,136.867 83.255 L 136.865 83.725 135.309 83.725 L 133.753 83.725 133.866 82.999 C 133.928 82.599,134.020 81.792,134.069 81.205 C 134.134 80.441,134.229 80.137,134.402 80.137 C 134.581 80.137,134.643 79.893,134.643 79.197 C 134.643 78.566,134.714 78.253,134.857 78.244 C 135.028 78.233,135.028 78.213,134.857 78.144 C 134.739 78.097,134.643 77.983,134.643 77.891 C 134.643 77.799,134.720 77.772,134.814 77.830 C 134.921 77.896,134.985 77.547,134.985 76.900 C 134.985 75.433,135.656 75.301,135.689 76.762 M94.148 82.358 C 94.148 82.452,94.230 82.529,94.331 82.529 C 94.856 82.529,95.002 83.032,95.002 84.836 C 95.002 86.639,94.856 87.142,94.331 87.142 C 94.230 87.142,94.148 87.258,94.148 87.399 C 94.148 87.605,93.882 87.655,92.781 87.655 L 91.414 87.655 91.414 84.921 L 91.414 82.187 92.781 82.187 C 93.578 82.187,94.148 82.258,94.148 82.358 " stroke="none" fill="#ec742c" fill-rule="evenodd"></path></g></svg>