# Alias OBJ Model File
# Exported from SketchUp, (c) 2000-2012 Trimble Navigation Limited
# File units = meters

mtllib Cube Point Model.mtl

g Mesh1 Model

usemtl FrontColor
v 0 0.433013 0.25
vt -9.84252 17.0477
vn 1 0 -0
v 0 0.353553 0.353553
vt -13.9194 13.9194
v 0 0.25 0.433013
vt -17.0477 9.84252
v 0 0.12941 0.482963
vt -19.0143 5.09486
v 0 6.12323e-17 0.5
vt -19.685 2.41072e-15
v 0 -0.12941 0.482963
vt -19.0143 -5.09486
v 0 -0.25 0.433013
vt -17.0477 -9.84252
v 0 -0.353553 0.353553
vt -13.9194 -13.9194
v 0 -0.433013 0.25
vt -9.84252 -17.0477
v 0 -0.482963 0.12941
vt -5.09486 -19.0143
v 0 -0.5 9.18485e-17
vt -3.61608e-15 -19.685
v 0 -0.482963 -0.12941
vt 5.09486 -19.0143
v 0 -0.433013 -0.25
vt 9.84252 -17.0477
v 0 -0.353553 -0.353553
vt 13.9194 -13.9194
v 0 -0.25 -0.433013
vt 17.0477 -9.84252
v 0 -0.12941 -0.482963
vt 19.0143 -5.09486
v 0 0 -0.5
vt 19.685 0
v 0 0.12941 -0.482963
vt 19.0143 5.09486
v 0 0.25 -0.433013
vt 17.0477 9.84252
v 0 0.353553 -0.353553
vt 13.9194 13.9194
v 0 0.433013 -0.25
vt 9.84252 17.0477
v 0 0.482963 -0.12941
vt 5.09486 19.0143
v 0 0.5 -3.06162e-17
vt 1.20536e-15 19.685
v 0 0.482963 0.12941
vt -5.09486 19.0143
f 1/1/1 2/2/1 3/3/1 4/4/1 5/5/1 6/6/1 7/7/1 8/8/1 9/9/1 10/10/1 11/11/1 12/12/1 13/13/1 14/14/1 15/15/1 16/16/1 17/17/1 18/18/1 19/19/1 20/20/1 21/21/1 22/22/1 23/23/1 24/24/1 

vt 0 -2.56941
vn 0 0.707107 0.707107
vt 0 2.56941
vn 0 0.866025 0.5
v -0.2 0.433013 0.25
vt -7.87402 2.56941
v -0.2 0.353553 0.353553
vt -7.87402 -2.56941
f 2/25/2 1/26/3 25/27/3 26/28/2 

vn 0 0.965926 0.258819
v -0.2 0.482963 0.12941
f 1/25/3 24/26/4 27/27/4 25/28/3 

vn 0 1 -2.79951e-16
v -0.2 0.5 -3.06162e-17
f 24/25/4 23/26/5 28/27/5 27/28/4 

vn 0 0.965926 -0.258819
v -0.2 0.482963 -0.12941
vt 7.87402 -2.56941
vt 7.87402 2.56941
f 23/26/5 22/25/6 29/29/6 28/30/5 

vn 0 0.866025 -0.5
v -0.2 0.433013 -0.25
f 22/26/6 21/25/7 30/29/7 29/30/6 

vn 0 0.707107 -0.707107
v -0.2 0.353553 -0.353553
f 21/26/7 20/25/8 31/29/8 30/30/7 

vn 0 0.5 -0.866025
v -0.2 0.25 -0.433013
f 20/26/8 19/25/9 32/29/9 31/30/8 

vn 0 0.258819 -0.965926
v -0.2 0.12941 -0.482963
f 19/26/9 18/25/10 33/29/10 32/30/9 

vn 0 -4.75916e-16 -1
v -0.2 0 -0.5
f 18/26/10 17/25/11 34/29/11 33/30/10 

vn 0 -0.258819 -0.965926
v -0.2 -0.12941 -0.482963
f 17/26/11 16/25/12 35/29/12 34/30/11 

vn 0 -0.5 -0.866025
v -0.2 -0.25 -0.433013
f 16/26/12 15/25/13 36/29/13 35/30/12 

vn 0 -0.707107 -0.707107
v -0.2 -0.353553 -0.353553
f 15/26/13 14/25/14 37/29/14 36/30/13 

vn 0 -0.866025 -0.5
v -0.2 -0.433013 -0.25
f 14/26/14 13/25/15 38/29/15 37/30/14 

vn 0 -0.965926 -0.258819
v -0.2 -0.482963 -0.12941
f 13/26/15 12/25/16 39/29/16 38/30/15 

vn 0 -1 4.75916e-16
v -0.2 -0.5 9.18485e-17
f 12/26/16 11/25/17 40/29/17 39/30/16 

vn 0 -0.965926 0.258819
v -0.2 -0.482963 0.12941
f 11/25/17 10/26/18 41/27/18 40/28/17 

vn 0 -0.866025 0.5
v -0.2 -0.433013 0.25
f 10/25/18 9/26/19 42/27/19 41/28/18 

vn 0 -0.707107 0.707107
v -0.2 -0.353553 0.353553
f 9/25/19 8/26/20 43/27/20 42/28/19 

vn 0 -0.5 0.866025
v -0.2 -0.25 0.433013
f 8/25/20 7/26/21 44/27/21 43/28/20 

vn 0 -0.258819 0.965926
v -0.2 -0.12941 0.482963
f 7/25/21 6/26/22 45/27/22 44/28/21 

vn 0 2.51956e-16 1
v -0.2 6.12323e-17 0.5
f 6/25/22 5/26/23 46/27/23 45/28/22 

vn 0 0.258819 0.965926
v -0.2 0.12941 0.482963
f 5/25/23 4/26/24 47/27/24 46/28/23 

vn 0 0.5 0.866025
v -0.2 0.25 0.433013
f 4/25/24 3/26/25 48/27/25 47/28/24 

f 3/25/25 2/26/2 26/27/2 48/28/25 

vn -1 0 -0
vt -1.20536e-15 19.685
vt -19.685 0
vt 3.61608e-15 -19.685
vt 19.685 2.41072e-15
f 26/20/26 25/21/26 27/22/26 28/31/26 29/24/26 30/1/26 31/2/26 32/3/26 33/4/26 34/32/26 35/6/26 36/7/26 37/8/26 38/9/26 39/10/26 40/33/26 41/12/26 42/13/26 43/14/26 44/15/26 45/16/26 46/34/26 47/18/26 48/19/26 

