# Alias OBJ Model File
# Exported from SketchUp, (c) 2000-2012 Trimble Navigation Limited
# File units = meters

mtllib Round Cube Model.mtl

g Mesh1 Model

usemtl FrontColor
v 1 0.1 -0.9
vt 35.4331 3.93701
vn 1 0 -0
v 1 0.075 -0.925
vt 36.4173 2.95276
v 1 0.2 -1
vt 39.3701 7.87402
f 1/1/1 2/2/1 3/3/1

v 1 0 -0.8
vt 31.4961 0
f 1/1/1 4/4/1 2/2/1

v 1 0.8 -0
vt 0 31.4961
v 1 0.2 -0
vt 0 7.87402
v 1 0.1 -0.1
vt 3.93701 3.93701
v 1 0 -0.2
vt 7.87402 0
v 1 0.8 -1
vt 39.3701 31.4961
v 1 0.9 -0.9
vt 35.4331 35.4331
v 1 1 -0.8
vt 31.4961 39.3701
v 1 1 -0.2
vt 7.87402 39.3701
v 1 0.9 -0.1
vt 3.93701 35.4331
f 5/5/1 6/6/1 7/7/1 8/8/1 4/4/1 1/1/1 3/3/1 9/9/1 10/10/1 11/11/1 12/12/1 13/13/1 

v 0 0.8 -0
vn 0 0 1
v 0 0.2 -0
f 14/5/2 15/6/2 6/3/2 5/9/2 

v 0 0 -0.8
vt -31.4961 0
vn -1 0 -0
v 0 0 -0.2
vt -7.87402 0
v 0 0.075 -0.075
vt -2.95276 2.95276
v 0 0.925 -0.075
vt -2.95276 36.4173
v 0 1 -0.2
vt -7.87402 39.3701
v 0 1 -0.8
vt -31.4961 39.3701
v 0 0.9 -0.9
vt -35.4331 35.4331
v 0 0.8 -1
vt -39.3701 31.4961
v 0 0.2 -1
vt -39.3701 7.87402
v 0 0.075 -0.925
vt -36.4173 2.95276
f 16/14/3 17/15/3 18/16/3 15/6/3 14/5/3 19/17/3 20/18/3 21/19/3 22/20/3 23/21/3 24/22/3 25/23/3 

vn 0 -1 -0
f 4/21/4 8/22/4 17/6/4 16/5/4 

vt 0 -1.01279
vn 0 -0.857493 0.514496
vt 0 -6.75191
vt 39.3701 -6.75191
v 1 0.075 -0.075
vt 39.3701 -1.01279
f 18/24/5 17/25/5 8/26/5 26/27/5 

vt 2.95276 2.95276
f 7/7/1 26/28/1 8/8/1

f 7/7/1 6/6/1 26/28/1

vt 0 6.75191
vn 0 -0.514496 0.857493
vt 0 1.01279
vt 39.3701 1.01279
vt 39.3701 6.75191
f 15/29/6 18/30/6 26/31/6 6/32/6 

vt 0 27.0077
vn 0 -0.857493 -0.514496
vt 0 32.7468
vt -39.3701 32.7468
vt -39.3701 27.0077
f 16/33/7 25/34/7 2/35/7 4/36/7 

vt 0 21.2685
vn 0 -0.514496 -0.857493
vt -39.3701 21.2685
f 25/37/8 24/33/8 3/36/8 2/38/8 

vn 0 0 -1
f 9/21/9 3/22/9 24/6/9 23/5/9 

v 0 0.925 -0.925
vt 0 12.491
vn 0 0.514496 -0.857493
v 1 0.925 -0.925
vt -39.3701 12.491
vt -39.3701 6.75191
f 27/39/10 28/40/10 9/41/10 23/29/10 

vt -39.3701 -6.75191
vn 0 0.857493 -0.514496
vt -39.3701 -12.491
vt 0 -12.491
f 11/42/11 28/43/11 27/44/11 21/25/11 

vt 36.4173 36.4173
f 28/45/1 11/11/1 10/10/1

f 10/10/1 9/9/1 28/45/1

vt -36.4173 36.4173
f 22/20/3 21/19/3 27/46/3

f 22/20/3 27/46/3 23/21/3

vn 0 1 -0
f 21/5/12 20/6/12 12/3/12 11/9/12 

vn 0 0.857493 0.514496
v 1 0.925 -0.075
vt 39.3701 21.2685
vt 39.3701 27.0077
f 20/33/13 19/37/13 29/47/13 12/48/13 

vn 0 0.514496 0.857493
vt 39.3701 32.7468
f 19/34/14 14/33/14 5/48/14 29/49/14 

vt 2.95276 36.4173
f 13/13/1 29/50/1 5/5/1

f 13/13/1 12/12/1 29/50/1

